HIERARCHY
ROOT Hips
{
	OFFSET 0.000000 0.000000 0.000000 
	CHANNELS 6 Xposition Yposition Zposition Yrotation Zrotation Xrotation 
	JOINT Lumbar
	{
		OFFSET 0.000000 0.000000 0.000000 
		CHANNELS 3 Zrotation Xrotation Yrotation
		JOINT Neck
		{
			OFFSET 0.000000 0.445665 0.000000 
			CHANNELS 3 Zrotation Xrotation Yrotation
			End Site
			{
				OFFSET 0.000000 0.227535 0.000000 
			}
		}
		JOINT RightShoulder
		{
			OFFSET 0.019635 0.377685 0.194865 
			CHANNELS 3 Zrotation Xrotation Yrotation
			JOINT RightElbow
			{
				OFFSET 0.000000 -0.243375 0.000000 
				CHANNELS 2 Zrotation Yrotation
				JOINT RightWrist
				{
					OFFSET 0.000000 -0.264825 0.000000 
					CHANNELS 2 Zrotation Xrotation
					End Site
					{
						OFFSET 0.006600 -0.176220 0.000990 
					}
				}
			}
		}
		JOINT LeftShoulder
		{
			OFFSET 0.019635 0.377685 -0.194865 
			CHANNELS 3 Zrotation Xrotation Yrotation
			JOINT LeftElbow
			{
				OFFSET 0.000000 -0.243375 0.000000 
				CHANNELS 2 Zrotation Yrotation
				JOINT LeftWrist
				{
					OFFSET 0.000000 -0.264825 0.000000 
					CHANNELS 2 Zrotation Xrotation
					End Site
					{
						OFFSET 0.006600 -0.176220 -0.000990 
					}
				}
			}
		}
	}
	JOINT RightHip
	{
		OFFSET 0.052140 -0.069960 0.075570 
		CHANNELS 3 Zrotation Xrotation Yrotation
		JOINT RightKnee
		{
			OFFSET 0.000000 -0.402270 0.000000 
			CHANNELS 1 Zrotation
			JOINT RightAnkle
			{
				OFFSET 0.000000 -0.404085 0.000000 
				CHANNELS 3 Zrotation Xrotation Yrotation
				End Site
				{
					OFFSET 0.204105 -0.089430 0.008415 
				}
			}
		}
	}
	JOINT LeftHip
	{
		OFFSET 0.052140 -0.069960 -0.075570 
		CHANNELS 3 Zrotation Xrotation Yrotation
		JOINT LeftKnee
		{
			OFFSET 0.000000 -0.402270 0.000000 
			CHANNELS 1 Zrotation
			JOINT LeftAnkle
			{
				OFFSET 0.000000 -0.404085 0.000000 
				CHANNELS 3 Zrotation Xrotation Yrotation
				End Site
				{
					OFFSET 0.204105 -0.089430 -0.008415 
				}
			}
		}
	}
}
MOTION
Frames: 11
Frame Time: 0.02
0.00779 -0.00162 -0.02006 -184.47164 -37.08652 -2.0932 48.62174 3.10668 -5.78161 -11.74898 4.51028 -2.10988 116.76073 -33.75471 36.06691 106.45126 80.69666 -2.16531 -6.49227 1.15791 57.32117 0.71904 74.03856 -87.30506 5.02113 0.1615 42.3253 -5.40421 -11.16912 -23.22465 -6.52066 -2.0994 -3.25672 45.69072 11.34772 4.3959 -27.44375 -6.86086 1.32474 2.90495
0.00789 -0.00162 -0.01927 -184.62867 -37.17212 -2.09624 48.61462 3.12391 -6.0197 -11.51348 4.43567 -2.1099 117.09525 -34.08571 36.5456 106.51688 87.03946 -5.62841 -7.1906 -1.19357 55.35708 -1.04366 71.07758 -87.50694 5.08621 0.07535 42.41784 -5.48247 -11.17069 -23.21647 -6.51822 -2.08687 -3.25033 45.74766 11.21849 4.14615 -27.44396 -6.84487 1.36083 2.92314
0.00791 -0.00162 -0.01842 -184.80548 -37.21361 -2.09706 48.56533 3.13956 -6.26214 -11.28333 4.33801 -2.10992 117.54191 -34.5286 37.22233 106.56912 95.03898 -9.97557 -8.05783 -3.00842 53.27922 -3.27336 68.08947 -87.55401 4.92489 0.00456 42.45114 -5.58807 -11.25824 -23.20344 -6.51486 -2.06547 -3.23935 45.74247 11.06097 3.82859 -27.44079 -6.82475 1.4103 2.94672
0.00797 -0.00162 -0.01759 -184.97527 -37.27742 -2.0998 48.53763 3.15653 -6.50142 -11.05341 4.25035 -2.10994 117.9056 -34.88545 37.76245 106.62716 101.87396 -13.71261 -8.80026 -5.05501 51.24236 -5.28014 65.13041 -87.67369 4.87515 -0.07408 42.51549 -5.67369 -11.27042 -23.19269 -6.51235 -2.05154 -3.23213 45.76783 10.91763 3.54635 -27.43962 -6.80672 1.45347 2.96768
0.00803 -0.00162 -0.01678 -185.13818 -37.3356 -2.099 48.50278 3.17122 -6.74763 -10.81036 4.16359 -2.10996 118.3997 -35.38408 38.49155 106.68597 110.39578 -18.3076 -9.73975 -7.12101 49.23702 -7.3656 62.08835 -87.78747 4.77735 -0.15039 42.56746 -5.78839 -11.42108 -23.1819 -6.50817 -2.02443 -3.21853 45.78776 10.76736 3.23994 -27.43676 -6.78766 1.49801 2.98966
0.00805 -0.00163 -0.01591 -185.31956 -37.3934 -2.10488 48.47169 3.19017 -6.9789 -10.59703 4.06991 -2.10998 118.65472 -35.62126 38.88315 106.74017 115.86431 -21.3566 -10.31698 -9.02834 47.1443 -9.38333 59.21885 -87.87967 4.7319 -0.22724 42.62901 -5.85096 -11.31347 -23.16999 -6.50713 -2.02173 -3.21667 45.80243 10.62544 2.9704 -27.43652 -6.76981 1.54262 3.01067
0.00797 -0.00165 -0.01492 -185.54689 -37.46212 -2.13041 48.46055 3.22139 -7.17745 -10.46032 3.9627 -2.11001 118.17054 -35.05013 38.21754 106.78462 111.90017 -19.63301 -9.77826 -10.66555 44.83877 -11.12115 56.81801 -87.90081 4.86551 -0.31216 42.73383 -5.75215 -10.42112 -23.15531 -6.51568 -2.09391 -3.2509 45.81957 10.51234 2.81121 -27.44428 -6.75618 1.58501 3.02798
0.00784 -0.00167 -0.01389 -185.79182 -37.53119 -2.16259 48.45439 3.25686 -7.35876 -10.35453 3.84959 -2.11003 117.45087 -34.22258 37.21905 106.82497 104.90853 -16.37212 -8.88169 -12.15965 42.45195 -12.7651 54.59755 -87.916 5.06459 -0.39822 42.84916 -5.60214 -9.27672 -23.13976 -6.5273 -2.18989 -3.29658 45.83263 10.4091 2.69368 -27.45475 -6.74395 1.62675 3.04403
0.00773 -0.00169 -0.01287 -186.0288 -37.59883 -2.19124 48.44594 3.29035 -7.54171 -10.23724 3.73922 -2.11005 116.87363 -33.55211 36.4245 106.86748 99.70418 -14.00783 -8.19902 -13.7004 40.10272 -14.43495 52.30356 -87.96198 5.24909 -0.48076 42.95751 -5.48299 -8.28233 -23.12512 -6.53705 -2.27137 -3.33526 45.84575 10.30217 2.56282 -27.46396 -6.73118 1.66818 3.06045
0.00764 -0.00171 -0.01185 -186.26689 -37.67048 -2.22189 48.43599 3.32418 -7.75155 -10.10848 3.6273 -2.11007 116.15343 -32.717 35.41795 106.90842 92.85534 -10.85487 -7.31059 -15.29993 37.74283 -16.19707 49.9664 -87.87417 5.3626 -0.57234 43.07338 -5.33301 -7.14117 -23.1082 -6.54873 -2.36802 -3.38132 45.8643 10.19053 2.40542 -27.4732 -6.71785 1.71273 3.07798
0.00749 -0.00174 -0.01083 -186.50583 -37.73428 -2.25007 48.43113 3.35809 -7.90052 -10.01197 3.5181 -2.1101 115.67035 -32.15909 34.76702 106.95165 88.64776 -8.94768 -6.75755 -16.74948 35.39202 -17.73267 47.77038 -88.0781 5.64109 -0.64947 43.17661 -5.23437 -6.2446 -23.09582 -6.55718 -2.43893 -3.41483 45.87143 10.09188 2.31466 -27.48306 -6.70608 1.75033 3.09277
